<svg aria-roledescription="er" viewBox="0 0 540.2184448242188 543" style="max-width: 540.218px; background-color: white;" xmlns:xlink="http://www.w3.org/1999/xlink" xmlns="http://www.w3.org/2000/svg" width="100%" id="mermaid-0"><style>#mermaid-0{font-family:"trebuchet ms",verdana,arial,sans-serif;font-size:16px;fill:#000000;}#mermaid-0 .error-icon{fill:#552222;}#mermaid-0 .error-text{fill:#552222;stroke:#552222;}#mermaid-0 .edge-thickness-normal{stroke-width:2px;}#mermaid-0 .edge-thickness-thick{stroke-width:3.5px;}#mermaid-0 .edge-pattern-solid{stroke-dasharray:0;}#mermaid-0 .edge-pattern-dashed{stroke-dasharray:3;}#mermaid-0 .edge-pattern-dotted{stroke-dasharray:2;}#mermaid-0 .marker{fill:#000000;stroke:#000000;}#mermaid-0 .marker.cross{stroke:#000000;}#mermaid-0 svg{font-family:"trebuchet ms",verdana,arial,sans-serif;font-size:16px;}#mermaid-0 .entityBox{fill:#cde498;stroke:#13540c;}#mermaid-0 .attributeBoxOdd{fill:#ffffff;stroke:#13540c;}#mermaid-0 .attributeBoxEven{fill:#f2f2f2;stroke:#13540c;}#mermaid-0 .relationshipLabelBox{fill:hsl(78.1578947368, 58.4615384615%, 84.5098039216%);opacity:0.7;background-color:hsl(78.1578947368, 58.4615384615%, 84.5098039216%);}#mermaid-0 .relationshipLabelBox rect{opacity:0.5;}#mermaid-0 .relationshipLine{stroke:#000000;}#mermaid-0 .entityTitleText{text-anchor:middle;font-size:18px;fill:#000000;}#mermaid-0 :root{--mermaid-font-family:"trebuchet ms",verdana,arial,sans-serif;}</style><g/><defs><marker orient="auto" markerHeight="18" markerWidth="18" refY="9" refX="0" id="ONLY_ONE_START"><path d="M9,0 L9,18 M15,0 L15,18" fill="none" stroke="gray"/></marker></defs><defs><marker orient="auto" markerHeight="18" markerWidth="18" refY="9" refX="18" id="ONLY_ONE_END"><path d="M3,0 L3,18 M9,0 L9,18" fill="none" stroke="gray"/></marker></defs><defs><marker orient="auto" markerHeight="18" markerWidth="30" refY="9" refX="0" id="ZERO_OR_ONE_START"><circle r="6" cy="9" cx="21" fill="white" stroke="gray"/><path d="M9,0 L9,18" fill="none" stroke="gray"/></marker></defs><defs><marker orient="auto" markerHeight="18" markerWidth="30" refY="9" refX="30" id="ZERO_OR_ONE_END"><circle r="6" cy="9" cx="9" fill="white" stroke="gray"/><path d="M21,0 L21,18" fill="none" stroke="gray"/></marker></defs><defs><marker orient="auto" markerHeight="36" markerWidth="45" refY="18" refX="18" id="ONE_OR_MORE_START"><path d="M0,18 Q 18,0 36,18 Q 18,36 0,18 M42,9 L42,27" fill="none" stroke="gray"/></marker></defs><defs><marker orient="auto" markerHeight="36" markerWidth="45" refY="18" refX="27" id="ONE_OR_MORE_END"><path d="M3,9 L3,27 M9,18 Q27,0 45,18 Q27,36 9,18" fill="none" stroke="gray"/></marker></defs><defs><marker orient="auto" markerHeight="36" markerWidth="57" refY="18" refX="18" id="ZERO_OR_MORE_START"><circle r="6" cy="18" cx="48" fill="white" stroke="gray"/><path d="M0,18 Q18,0 36,18 Q18,36 0,18" fill="none" stroke="gray"/></marker></defs><defs><marker orient="auto" markerHeight="36" markerWidth="57" refY="18" refX="39" id="ZERO_OR_MORE_END"><circle r="6" cy="18" cx="9" fill="white" stroke="gray"/><path d="M21,18 Q39,0 57,18 Q39,36 21,18" fill="none" stroke="gray"/></marker></defs><path style="stroke: gray; fill: none;" marker-start="url(#ZERO_OR_MORE_START)" marker-end="url(#ZERO_OR_ONE_END)" d="M131.3671875,273L131.3671875,281.3333333333333C131.3671875,289.6666666666667,131.3671875,306.3333333333333,147.95416514078775,325.68996711789447C164.54114278157553,345.04660090245557,197.71509806315103,367.09320180491113,214.3020757039388,378.11650225613886L230.88905334472656,389.1398027073667" class="er relationshipLine"/><path style="stroke: gray; fill: none;" marker-start="url(#ZERO_OR_MORE_START)" marker-end="url(#ONLY_ONE_END)" d="M81.3671875,86L81.3671875,94.33333333333333C81.3671875,102.66666666666667,81.3671875,119.33333333333333,85.82351548573975,136C90.27984347147951,152.66666666666666,99.192499442959,169.33333333333334,103.64882742869877,177.66666666666666L108.1051554144385,186" class="er relationshipLine"/><path style="stroke: gray; fill: none;" marker-start="url(#ZERO_OR_MORE_START)" marker-end="url(#ONLY_ONE_END)" d="M353.5120544433594,75.5L353.5120544433594,85.58333333333333C353.5120544433594,95.66666666666667,353.5120544433594,115.83333333333333,353.5120544433594,136C353.5120544433594,156.16666666666666,353.5120544433594,176.33333333333334,353.5120544433594,186.41666666666666L353.5120544433594,196.5" class="er relationshipLine"/><path style="stroke: gray; fill: none;" marker-start="url(#ZERO_OR_MORE_START)" marker-end="url(#ONLY_ONE_END)" d="M309.84784055043417,75.5L290.2798039539751,85.58333333333333C270.711767357516,95.66666666666667,231.57569416459785,115.83333333333333,206.5644816793973,134.25C181.55326919419667,152.66666666666666,170.66691741671366,169.33333333333334,165.22374152797215,177.66666666666666L159.78056563923064,186" class="er relationshipLine"/><path style="stroke: gray; fill: none;" marker-start="url(#ZERO_OR_MORE_START)" marker-end="url(#ZERO_OR_ONE_END)" d="M395.26854788538924,75.5L413.9816430945952,85.58333333333333C432.69473830380116,95.66666666666667,470.120928722213,115.83333333333333,488.83402393141904,141.5C507.547119140625,167.16666666666666,507.547119140625,198.33333333333334,507.547119140625,229.5C507.547119140625,260.6666666666667,507.547119140625,291.8333333333333,490.9601414998372,318.43996711789447C474.3731638590495,345.04660090245557,441.19920857747394,367.09320180491113,424.6122309366862,378.11650225613886L408.02525329589844,389.1398027073667" class="er relationshipLine"/><g transform="translate(230.88905334472656,373 )" id="entity-User-721fd4d3-9049-475d-84ac-1a52d70ec70d"><rect height="150" width="177.13619995117188" y="0" x="0" class="er entityBox"/><text style="dominant-baseline: middle; text-anchor: middle; font-size: 12px;" transform="translate(88.56809997558594,12)" y="0" x="0" id="text-entity-User-721fd4d3-9049-475d-84ac-1a52d70ec70d" class="er entityLabel">User</text><rect height="21" width="54.113128662109375" y="24" x="0" class="er attributeBoxOdd"/><text style="dominant-baseline: middle; font-size: 10.2px;" transform="translate(5,34.5)" y="0" x="0" id="text-entity-User-721fd4d3-9049-475d-84ac-1a52d70ec70d-attr-1-type" class="er entityLabel">String</text><rect height="21" width="53.774871826171875" y="24" x="54.113128662109375" class="er attributeBoxOdd"/><text style="dominant-baseline: middle; font-size: 10.2px;" transform="translate(59.113128662109375,34.5)" y="0" x="0" id="text-entity-User-721fd4d3-9049-475d-84ac-1a52d70ec70d-attr-1-name" class="er entityLabel">id</text><rect height="21" width="23.79498291015625" y="24" x="107.88800048828125" class="er attributeBoxOdd"/><text style="dominant-baseline: middle; font-size: 10.2px;" transform="translate(112.88800048828125,34.5)" y="0" x="0" id="text-entity-User-721fd4d3-9049-475d-84ac-1a52d70ec70d-attr-1-key" class="er entityLabel">PK</text><rect height="21" width="45.453216552734375" y="24" x="131.6829833984375" class="er attributeBoxOdd"/><text style="dominant-baseline: middle; font-size: 10.2px;" transform="translate(136.6829833984375,34.5)" y="0" x="0" id="text-entity-User-721fd4d3-9049-475d-84ac-1a52d70ec70d-attr-1-comment" class="er entityLabel"/><rect height="21" width="54.113128662109375" y="45" x="0" class="er attributeBoxEven"/><text style="dominant-baseline: middle; font-size: 10.2px;" transform="translate(5,55.5)" y="0" x="0" id="text-entity-User-721fd4d3-9049-475d-84ac-1a52d70ec70d-attr-2-type" class="er entityLabel">String</text><rect height="21" width="53.774871826171875" y="45" x="54.113128662109375" class="er attributeBoxEven"/><text style="dominant-baseline: middle; font-size: 10.2px;" transform="translate(59.113128662109375,55.5)" y="0" x="0" id="text-entity-User-721fd4d3-9049-475d-84ac-1a52d70ec70d-attr-2-name" class="er entityLabel">name</text><rect height="21" width="23.79498291015625" y="45" x="107.88800048828125" class="er attributeBoxEven"/><text style="dominant-baseline: middle; font-size: 10.2px;" transform="translate(112.88800048828125,55.5)" y="0" x="0" id="text-entity-User-721fd4d3-9049-475d-84ac-1a52d70ec70d-attr-2-key" class="er entityLabel"/><rect height="21" width="45.453216552734375" y="45" x="131.6829833984375" class="er attributeBoxEven"/><text style="dominant-baseline: middle; font-size: 10.2px;" transform="translate(136.6829833984375,55.5)" y="0" x="0" id="text-entity-User-721fd4d3-9049-475d-84ac-1a52d70ec70d-attr-2-comment" class="er entityLabel"/><rect height="21" width="54.113128662109375" y="66" x="0" class="er attributeBoxOdd"/><text style="dominant-baseline: middle; font-size: 10.2px;" transform="translate(5,76.5)" y="0" x="0" id="text-entity-User-721fd4d3-9049-475d-84ac-1a52d70ec70d-attr-3-type" class="er entityLabel">String</text><rect height="21" width="53.774871826171875" y="66" x="54.113128662109375" class="er attributeBoxOdd"/><text style="dominant-baseline: middle; font-size: 10.2px;" transform="translate(59.113128662109375,76.5)" y="0" x="0" id="text-entity-User-721fd4d3-9049-475d-84ac-1a52d70ec70d-attr-3-name" class="er entityLabel">email</text><rect height="21" width="23.79498291015625" y="66" x="107.88800048828125" class="er attributeBoxOdd"/><text style="dominant-baseline: middle; font-size: 10.2px;" transform="translate(112.88800048828125,76.5)" y="0" x="0" id="text-entity-User-721fd4d3-9049-475d-84ac-1a52d70ec70d-attr-3-key" class="er entityLabel"/><rect height="21" width="45.453216552734375" y="66" x="131.6829833984375" class="er attributeBoxOdd"/><text style="dominant-baseline: middle; font-size: 10.2px;" transform="translate(136.6829833984375,76.5)" y="0" x="0" id="text-entity-User-721fd4d3-9049-475d-84ac-1a52d70ec70d-attr-3-comment" class="er entityLabel"/><rect height="21" width="54.113128662109375" y="87" x="0" class="er attributeBoxEven"/><text style="dominant-baseline: middle; font-size: 10.2px;" transform="translate(5,97.5)" y="0" x="0" id="text-entity-User-721fd4d3-9049-475d-84ac-1a52d70ec70d-attr-4-type" class="er entityLabel">String</text><rect height="21" width="53.774871826171875" y="87" x="54.113128662109375" class="er attributeBoxEven"/><text style="dominant-baseline: middle; font-size: 10.2px;" transform="translate(59.113128662109375,97.5)" y="0" x="0" id="text-entity-User-721fd4d3-9049-475d-84ac-1a52d70ec70d-attr-4-name" class="er entityLabel">googleId</text><rect height="21" width="23.79498291015625" y="87" x="107.88800048828125" class="er attributeBoxEven"/><text style="dominant-baseline: middle; font-size: 10.2px;" transform="translate(112.88800048828125,97.5)" y="0" x="0" id="text-entity-User-721fd4d3-9049-475d-84ac-1a52d70ec70d-attr-4-key" class="er entityLabel"/><rect height="21" width="45.453216552734375" y="87" x="131.6829833984375" class="er attributeBoxEven"/><text style="dominant-baseline: middle; font-size: 10.2px;" transform="translate(136.6829833984375,97.5)" y="0" x="0" id="text-entity-User-721fd4d3-9049-475d-84ac-1a52d70ec70d-attr-4-comment" class="er entityLabel">nullable</text><rect height="21" width="54.113128662109375" y="108" x="0" class="er attributeBoxOdd"/><text style="dominant-baseline: middle; font-size: 10.2px;" transform="translate(5,118.5)" y="0" x="0" id="text-entity-User-721fd4d3-9049-475d-84ac-1a52d70ec70d-attr-5-type" class="er entityLabel">String</text><rect height="21" width="53.774871826171875" y="108" x="54.113128662109375" class="er attributeBoxOdd"/><text style="dominant-baseline: middle; font-size: 10.2px;" transform="translate(59.113128662109375,118.5)" y="0" x="0" id="text-entity-User-721fd4d3-9049-475d-84ac-1a52d70ec70d-attr-5-name" class="er entityLabel">avatarUrl</text><rect height="21" width="23.79498291015625" y="108" x="107.88800048828125" class="er attributeBoxOdd"/><text style="dominant-baseline: middle; font-size: 10.2px;" transform="translate(112.88800048828125,118.5)" y="0" x="0" id="text-entity-User-721fd4d3-9049-475d-84ac-1a52d70ec70d-attr-5-key" class="er entityLabel"/><rect height="21" width="45.453216552734375" y="108" x="131.6829833984375" class="er attributeBoxOdd"/><text style="dominant-baseline: middle; font-size: 10.2px;" transform="translate(136.6829833984375,118.5)" y="0" x="0" id="text-entity-User-721fd4d3-9049-475d-84ac-1a52d70ec70d-attr-5-comment" class="er entityLabel">nullable</text><rect height="21" width="54.113128662109375" y="129" x="0" class="er attributeBoxEven"/><text style="dominant-baseline: middle; font-size: 10.2px;" transform="translate(5,139.5)" y="0" x="0" id="text-entity-User-721fd4d3-9049-475d-84ac-1a52d70ec70d-attr-6-type" class="er entityLabel">DateTime</text><rect height="21" width="53.774871826171875" y="129" x="54.113128662109375" class="er attributeBoxEven"/><text style="dominant-baseline: middle; font-size: 10.2px;" transform="translate(59.113128662109375,139.5)" y="0" x="0" id="text-entity-User-721fd4d3-9049-475d-84ac-1a52d70ec70d-attr-6-name" class="er entityLabel">createdAt</text><rect height="21" width="23.79498291015625" y="129" x="107.88800048828125" class="er attributeBoxEven"/><text style="dominant-baseline: middle; font-size: 10.2px;" transform="translate(112.88800048828125,139.5)" y="0" x="0" id="text-entity-User-721fd4d3-9049-475d-84ac-1a52d70ec70d-attr-6-key" class="er entityLabel"/><rect height="21" width="45.453216552734375" y="129" x="131.6829833984375" class="er attributeBoxEven"/><text style="dominant-baseline: middle; font-size: 10.2px;" transform="translate(136.6829833984375,139.5)" y="0" x="0" id="text-entity-User-721fd4d3-9049-475d-84ac-1a52d70ec70d-attr-6-comment" class="er entityLabel"/></g><g transform="translate(63.25738525390625,186 )" id="entity-habits-82e65886-831c-441a-b200-ea006f24b920"><rect height="87" width="136.2196044921875" y="0" x="0" class="er entityBox"/><text style="dominant-baseline: middle; text-anchor: middle; font-size: 12px;" transform="translate(68.10980224609375,12)" y="0" x="0" id="text-entity-habits-82e65886-831c-441a-b200-ea006f24b920" class="er entityLabel">habits</text><rect height="21" width="54.113128662109375" y="24" x="0" class="er attributeBoxOdd"/><text style="dominant-baseline: middle; font-size: 10.2px;" transform="translate(5,34.5)" y="0" x="0" id="text-entity-habits-82e65886-831c-441a-b200-ea006f24b920-attr-1-type" class="er entityLabel">String</text><rect height="21" width="58.311492919921875" y="24" x="54.113128662109375" class="er attributeBoxOdd"/><text style="dominant-baseline: middle; font-size: 10.2px;" transform="translate(59.113128662109375,34.5)" y="0" x="0" id="text-entity-habits-82e65886-831c-441a-b200-ea006f24b920-attr-1-name" class="er entityLabel">id</text><rect height="21" width="23.79498291015625" y="24" x="112.42462158203125" class="er attributeBoxOdd"/><text style="dominant-baseline: middle; font-size: 10.2px;" transform="translate(117.42462158203125,34.5)" y="0" x="0" id="text-entity-habits-82e65886-831c-441a-b200-ea006f24b920-attr-1-key" class="er entityLabel">PK</text><rect height="21" width="54.113128662109375" y="45" x="0" class="er attributeBoxEven"/><text style="dominant-baseline: middle; font-size: 10.2px;" transform="translate(5,55.5)" y="0" x="0" id="text-entity-habits-82e65886-831c-441a-b200-ea006f24b920-attr-2-type" class="er entityLabel">String</text><rect height="21" width="58.311492919921875" y="45" x="54.113128662109375" class="er attributeBoxEven"/><text style="dominant-baseline: middle; font-size: 10.2px;" transform="translate(59.113128662109375,55.5)" y="0" x="0" id="text-entity-habits-82e65886-831c-441a-b200-ea006f24b920-attr-2-name" class="er entityLabel">title</text><rect height="21" width="23.79498291015625" y="45" x="112.42462158203125" class="er attributeBoxEven"/><text style="dominant-baseline: middle; font-size: 10.2px;" transform="translate(117.42462158203125,55.5)" y="0" x="0" id="text-entity-habits-82e65886-831c-441a-b200-ea006f24b920-attr-2-key" class="er entityLabel"/><rect height="21" width="54.113128662109375" y="66" x="0" class="er attributeBoxOdd"/><text style="dominant-baseline: middle; font-size: 10.2px;" transform="translate(5,76.5)" y="0" x="0" id="text-entity-habits-82e65886-831c-441a-b200-ea006f24b920-attr-3-type" class="er entityLabel">DateTime</text><rect height="21" width="58.311492919921875" y="66" x="54.113128662109375" class="er attributeBoxOdd"/><text style="dominant-baseline: middle; font-size: 10.2px;" transform="translate(59.113128662109375,76.5)" y="0" x="0" id="text-entity-habits-82e65886-831c-441a-b200-ea006f24b920-attr-3-name" class="er entityLabel">created_at</text><rect height="21" width="23.79498291015625" y="66" x="112.42462158203125" class="er attributeBoxOdd"/><text style="dominant-baseline: middle; font-size: 10.2px;" transform="translate(117.42462158203125,76.5)" y="0" x="0" id="text-entity-habits-82e65886-831c-441a-b200-ea006f24b920-attr-3-key" class="er entityLabel"/></g><g transform="translate(20,20 )" id="entity-habitweekdays-1311f389-e5ae-4230-a3c4-43e8118f0c7e"><rect height="66" width="122.734375" y="0" x="0" class="er entityBox"/><text style="dominant-baseline: middle; text-anchor: middle; font-size: 12px;" transform="translate(61.3671875,12)" y="0" x="0" id="text-entity-habitweekdays-1311f389-e5ae-4230-a3c4-43e8118f0c7e" class="er entityLabel">habit_week_days</text><rect height="21" width="38.351216634114586" y="24" x="0" class="er attributeBoxOdd"/><text style="dominant-baseline: middle; font-size: 10.2px;" transform="translate(5,34.5)" y="0" x="0" id="text-entity-habitweekdays-1311f389-e5ae-4230-a3c4-43e8118f0c7e-attr-1-type" class="er entityLabel">String</text><rect height="21" width="59.18401082356771" y="24" x="38.351216634114586" class="er attributeBoxOdd"/><text style="dominant-baseline: middle; font-size: 10.2px;" transform="translate(43.351216634114586,34.5)" y="0" x="0" id="text-entity-habitweekdays-1311f389-e5ae-4230-a3c4-43e8118f0c7e-attr-1-name" class="er entityLabel">id</text><rect height="21" width="25.199147542317707" y="24" x="97.5352274576823" class="er attributeBoxOdd"/><text style="dominant-baseline: middle; font-size: 10.2px;" transform="translate(102.5352274576823,34.5)" y="0" x="0" id="text-entity-habitweekdays-1311f389-e5ae-4230-a3c4-43e8118f0c7e-attr-1-key" class="er entityLabel">PK</text><rect height="21" width="38.351216634114586" y="45" x="0" class="er attributeBoxEven"/><text style="dominant-baseline: middle; font-size: 10.2px;" transform="translate(5,55.5)" y="0" x="0" id="text-entity-habitweekdays-1311f389-e5ae-4230-a3c4-43e8118f0c7e-attr-2-type" class="er entityLabel">Int</text><rect height="21" width="59.18401082356771" y="45" x="38.351216634114586" class="er attributeBoxEven"/><text style="dominant-baseline: middle; font-size: 10.2px;" transform="translate(43.351216634114586,55.5)" y="0" x="0" id="text-entity-habitweekdays-1311f389-e5ae-4230-a3c4-43e8118f0c7e-attr-2-name" class="er entityLabel">week_day</text><rect height="21" width="25.199147542317707" y="45" x="97.5352274576823" class="er attributeBoxEven"/><text style="dominant-baseline: middle; font-size: 10.2px;" transform="translate(102.5352274576823,55.5)" y="0" x="0" id="text-entity-habitweekdays-1311f389-e5ae-4230-a3c4-43e8118f0c7e-attr-2-key" class="er entityLabel"/></g><g transform="translate(299.47698974609375,196.5 )" id="entity-days-f1c15164-7169-4aa1-bb99-112dbfbfa368"><rect height="66" width="108.07012939453125" y="0" x="0" class="er entityBox"/><text style="dominant-baseline: middle; text-anchor: middle; font-size: 12px;" transform="translate(54.035064697265625,12)" y="0" x="0" id="text-entity-days-f1c15164-7169-4aa1-bb99-112dbfbfa368" class="er entityLabel">days</text><rect height="21" width="54.113128662109375" y="24" x="0" class="er attributeBoxOdd"/><text style="dominant-baseline: middle; font-size: 10.2px;" transform="translate(5,34.5)" y="0" x="0" id="text-entity-days-f1c15164-7169-4aa1-bb99-112dbfbfa368-attr-1-type" class="er entityLabel">String</text><rect height="21" width="30.162017822265625" y="24" x="54.113128662109375" class="er attributeBoxOdd"/><text style="dominant-baseline: middle; font-size: 10.2px;" transform="translate(59.113128662109375,34.5)" y="0" x="0" id="text-entity-days-f1c15164-7169-4aa1-bb99-112dbfbfa368-attr-1-name" class="er entityLabel">id</text><rect height="21" width="23.79498291015625" y="24" x="84.275146484375" class="er attributeBoxOdd"/><text style="dominant-baseline: middle; font-size: 10.2px;" transform="translate(89.275146484375,34.5)" y="0" x="0" id="text-entity-days-f1c15164-7169-4aa1-bb99-112dbfbfa368-attr-1-key" class="er entityLabel">PK</text><rect height="21" width="54.113128662109375" y="45" x="0" class="er attributeBoxEven"/><text style="dominant-baseline: middle; font-size: 10.2px;" transform="translate(5,55.5)" y="0" x="0" id="text-entity-days-f1c15164-7169-4aa1-bb99-112dbfbfa368-attr-2-type" class="er entityLabel">DateTime</text><rect height="21" width="30.162017822265625" y="45" x="54.113128662109375" class="er attributeBoxEven"/><text style="dominant-baseline: middle; font-size: 10.2px;" transform="translate(59.113128662109375,55.5)" y="0" x="0" id="text-entity-days-f1c15164-7169-4aa1-bb99-112dbfbfa368-attr-2-name" class="er entityLabel">date</text><rect height="21" width="23.79498291015625" y="45" x="84.275146484375" class="er attributeBoxEven"/><text style="dominant-baseline: middle; font-size: 10.2px;" transform="translate(89.275146484375,55.5)" y="0" x="0" id="text-entity-days-f1c15164-7169-4aa1-bb99-112dbfbfa368-attr-2-key" class="er entityLabel"/></g><g transform="translate(303.5120544433594,30.5 )" id="entity-dayhabits-7b29c07e-4455-4a41-8a41-afb609968028"><rect height="45" width="100" y="0" x="0" class="er entityBox"/><text style="dominant-baseline: middle; text-anchor: middle; font-size: 12px;" transform="translate(50,12)" y="0" x="0" id="text-entity-dayhabits-7b29c07e-4455-4a41-8a41-afb609968028" class="er entityLabel">day_habits</text><rect height="21" width="43.94526163736979" y="24" x="0" class="er attributeBoxOdd"/><text style="dominant-baseline: middle; font-size: 10.2px;" transform="translate(5,34.5)" y="0" x="0" id="text-entity-dayhabits-7b29c07e-4455-4a41-8a41-afb609968028-attr-1-type" class="er entityLabel">String</text><rect height="21" width="25.261545817057293" y="24" x="43.94526163736979" class="er attributeBoxOdd"/><text style="dominant-baseline: middle; font-size: 10.2px;" transform="translate(48.94526163736979,34.5)" y="0" x="0" id="text-entity-dayhabits-7b29c07e-4455-4a41-8a41-afb609968028-attr-1-name" class="er entityLabel">id</text><rect height="21" width="30.793192545572918" y="24" x="69.20680745442708" class="er attributeBoxOdd"/><text style="dominant-baseline: middle; font-size: 10.2px;" transform="translate(74.20680745442708,34.5)" y="0" x="0" id="text-entity-dayhabits-7b29c07e-4455-4a41-8a41-afb609968028-attr-1-key" class="er entityLabel">PK</text></g><rect height="14" width="23.34765625" y="335.3268737792969" x="153.4402313232422" class="er relationshipLabelBox"/><text style="text-anchor: middle; dominant-baseline: middle; font-size: 12px;" y="342.3268737792969" x="165.1140594482422" id="rel1" class="er relationshipLabel">user</text><rect height="14" width="26.6875" y="131.1707000732422" x="73.08501434326172" class="er relationshipLabelBox"/><text style="text-anchor: middle; dominant-baseline: middle; font-size: 12px;" y="138.1707000732422" x="86.42876434326172" id="rel2" class="er relationshipLabel">habit</text><rect height="14" width="19.359375" y="129" x="343.8323669433594" class="er relationshipLabelBox"/><text style="text-anchor: middle; dominant-baseline: middle; font-size: 12px;" y="136" x="353.5120544433594" id="rel3" class="er relationshipLabel">day</text><rect height="14" width="26.6875" y="113.70723724365234" x="213.4353790283203" class="er relationshipLabelBox"/><text style="text-anchor: middle; dominant-baseline: middle; font-size: 12px;" y="120.70723724365234" x="226.7791290283203" id="rel4" class="er relationshipLabel">habit</text><rect height="14" width="25.34375" y="219.7593536376953" x="494.87469482421875" class="er relationshipLabelBox"/><text style="text-anchor: middle; dominant-baseline: middle; font-size: 12px;" y="226.7593536376953" x="507.54656982421875" id="rel5" class="er relationshipLabel">User</text></svg>